<svg width="221" height="64" viewBox="0 0 221 64" fill="none" xmlns="http://www.w3.org/2000/svg">
<path d="M23.152 40.0305V38.9216C24.4074 38.8477 25.349 38.6998 25.9767 38.478C26.6414 38.2563 27.0845 37.8127 27.306 37.1474C27.5276 36.4821 27.6384 35.4841 27.6384 34.1534V6.65326C27.6384 5.28565 27.5276 4.28766 27.306 3.6593C27.0845 2.99397 26.6414 2.55042 25.9767 2.32864C25.349 2.06991 24.4074 1.92205 23.152 1.88509V0.776217C24.0012 0.813179 25.0721 0.850141 26.3644 0.887103C27.6568 0.924065 28.9307 0.942546 30.1862 0.942546C31.6263 0.942546 32.974 0.924065 34.2295 0.887103C35.4849 0.850141 36.5004 0.813179 37.2758 0.776217V1.88509C36.0203 1.92205 35.0603 2.06991 34.3956 2.32864C33.7679 2.55042 33.3433 2.99397 33.1217 3.6593C32.9002 4.28766 32.7894 5.28565 32.7894 6.65326V34.1534C32.7894 35.4841 32.9002 36.4821 33.1217 37.1474C33.3433 37.8127 33.7679 38.2563 34.3956 38.478C35.0603 38.6998 36.0203 38.8477 37.2758 38.9216V40.0305C36.5004 39.9565 35.4849 39.9196 34.2295 39.9196C32.974 39.8826 31.6263 39.8641 30.1862 39.8641C28.9307 39.8641 27.6568 39.8826 26.3644 39.9196C25.0721 39.9196 24.0012 39.9565 23.152 40.0305ZM0 40.0305V38.9216C1.25545 38.8477 2.19704 38.6998 2.82476 38.478C3.48941 38.2563 3.93251 37.8127 4.15406 37.1474C4.37561 36.4821 4.48639 35.4841 4.48639 34.1534V6.65326C4.48639 5.28565 4.37561 4.28766 4.15406 3.6593C3.93251 2.99397 3.48941 2.55042 2.82476 2.32864C2.19704 2.06991 1.25545 1.92205 0 1.88509V0.776217C0.775425 0.813179 1.79086 0.850141 3.04631 0.887103C4.30176 0.924065 5.64952 0.942546 7.0896 0.942546C8.38197 0.942546 9.65589 0.924065 10.9113 0.887103C12.2037 0.850141 13.2745 0.813179 14.1238 0.776217V1.88509C12.8684 1.92205 11.9083 2.06991 11.2437 2.32864C10.6159 2.55042 10.1913 2.99397 9.96975 3.6593C9.7482 4.28766 9.63742 5.28565 9.63742 6.65326V34.1534C9.63742 35.4841 9.7482 36.4821 9.96975 37.1474C10.1913 37.8127 10.6159 38.2563 11.2437 38.478C11.9083 38.6998 12.8684 38.8477 14.1238 38.9216V40.0305C13.2745 39.9565 12.2037 39.9196 10.9113 39.9196C9.65589 39.8826 8.38197 39.8641 7.0896 39.8641C5.64952 39.8641 4.30176 39.8826 3.04631 39.9196C1.79086 39.9196 0.775425 39.9565 0 40.0305ZM7.69886 20.8469V19.738H29.5769V20.8469H7.69886Z" fill="white"/>
<path d="M57.4831 0.498995L70.9977 35.3732C71.5516 36.7778 72.1793 37.7203 72.8809 38.2008C73.5824 38.6444 74.2286 38.8846 74.8194 38.9216V40.0305C74.0809 39.9565 73.1763 39.9196 72.1054 39.9196C71.0346 39.8826 69.9638 39.8641 68.893 39.8641C67.4529 39.8641 66.1051 39.8826 64.8497 39.9196C63.5942 39.9196 62.5788 39.9565 61.8034 40.0305V38.9216C63.6865 38.8477 64.8866 38.5335 65.4035 37.979C65.9205 37.3876 65.8097 36.1494 65.0712 34.2643L54.7691 6.70871L55.6553 5.98794L46.0179 31.0486C45.4271 32.5271 45.0763 33.7838 44.9656 34.8187C44.8548 35.8167 44.9471 36.6114 45.2425 37.2028C45.5748 37.7942 46.1102 38.2193 46.8487 38.478C47.6242 38.7368 48.5842 38.8846 49.7289 38.9216V40.0305C48.695 39.9565 47.6057 39.9196 46.461 39.9196C45.3533 39.8826 44.3194 39.8641 43.3593 39.8641C42.4362 39.8641 41.6423 39.8826 40.9777 39.9196C40.3499 39.9196 39.7591 39.9565 39.2053 40.0305V38.9216C39.9438 38.7368 40.7007 38.3117 41.4761 37.6464C42.2516 36.9441 42.9531 35.7613 43.5809 34.098L56.5969 0.498995C56.7446 0.498995 56.8923 0.498995 57.04 0.498995C57.1877 0.498995 57.3354 0.498995 57.4831 0.498995ZM64.2404 24.0626V25.1715H47.7349L48.2888 24.0626H64.2404Z" fill="white"/>
<path d="M75.7251 0.776217C76.5005 0.813179 77.516 0.850141 78.7714 0.887103C80.0269 0.924065 81.2638 0.942546 82.4824 0.942546C84.2178 0.942546 85.8795 0.924065 87.4672 0.887103C89.055 0.850141 90.1812 0.83166 90.8459 0.83166C93.8368 0.83166 96.3108 1.25673 98.2678 2.10687C100.262 2.95701 101.739 4.12133 102.699 5.59983C103.696 7.04137 104.194 8.66772 104.194 10.4789C104.194 11.5878 103.973 12.7706 103.53 14.0273C103.087 15.284 102.311 16.4668 101.203 17.5757C100.133 18.6846 98.6555 19.6086 96.7723 20.3479C94.8892 21.0502 92.5075 21.4013 89.6273 21.4013H84.3102V20.2924H89.0735C91.6952 20.2924 93.6891 19.8859 95.0553 19.0727C96.4585 18.2225 97.4001 17.1137 97.8801 15.7461C98.397 14.3415 98.6555 12.789 98.6555 11.0888C98.6555 8.16873 97.9539 5.91401 96.5508 4.32462C95.1846 2.69827 92.8214 1.88509 89.4612 1.88509C87.7626 1.88509 86.6549 2.19927 86.1379 2.82764C85.621 3.456 85.3625 4.73121 85.3625 6.65326V34.1534C85.3625 35.4841 85.4733 36.4821 85.6948 37.1474C85.9164 37.8127 86.341 38.2563 86.9688 38.478C87.6334 38.6998 88.5935 38.8477 89.8489 38.9216V40.0305C88.9996 39.9565 87.9288 39.9196 86.6364 39.9196C85.381 39.8826 84.1071 39.8641 82.8147 39.8641C81.3746 39.8641 80.0269 39.8826 78.7714 39.9196C77.516 39.9196 76.5005 39.9565 75.7251 40.0305V38.9216C76.9805 38.8477 77.9221 38.6998 78.5499 38.478C79.2145 38.2563 79.6576 37.8127 79.8792 37.1474C80.1007 36.4821 80.2115 35.4841 80.2115 34.1534V6.65326C80.2115 5.28565 80.1007 4.28766 79.8792 3.6593C79.6576 2.99397 79.2145 2.55042 78.5499 2.32864C77.9221 2.06991 76.9805 1.92205 75.7251 1.88509V0.776217ZM84.5317 20.4588C86.5257 20.5327 88.095 20.6251 89.2396 20.736C90.3843 20.8099 91.3074 20.8838 92.009 20.9578C92.7475 21.0317 93.4491 21.1241 94.1137 21.235C96.5877 21.6416 98.3601 22.3993 99.4309 23.5082C100.539 24.5801 101.351 26.2619 101.868 28.5536L103.253 34.2089C103.622 35.8352 103.991 37.018 104.36 37.7573C104.767 38.4595 105.376 38.7922 106.188 38.7552C106.816 38.7183 107.333 38.515 107.739 38.1454C108.182 37.7757 108.644 37.2767 109.124 36.6484L109.955 37.2583C109.179 38.4041 108.367 39.2912 107.518 39.9196C106.705 40.511 105.542 40.8067 104.028 40.8067C102.662 40.8067 101.462 40.4001 100.428 39.5869C99.394 38.7737 98.6186 37.1843 98.1016 34.8187L96.8831 29.2743C96.5508 27.685 96.1631 26.3173 95.72 25.1715C95.3138 23.9887 94.723 23.0646 93.9476 22.3993C93.2091 21.734 92.1013 21.4013 90.6243 21.4013H84.6425L84.5317 20.4588Z" fill="white"/>
<path d="M111.64 0.776217C112.416 0.813179 113.431 0.850141 114.687 0.887103C115.942 0.924065 117.179 0.942546 118.398 0.942546C120.133 0.942546 121.795 0.924065 123.383 0.887103C124.97 0.850141 126.097 0.83166 126.761 0.83166C130.638 0.83166 133.555 1.64484 135.512 3.27119C137.469 4.89754 138.448 6.98593 138.448 9.53634C138.448 10.83 138.171 12.1052 137.617 13.362C137.1 14.5817 136.214 15.7091 134.959 16.744C133.74 17.742 132.097 18.5552 130.029 19.1836V19.2945C132.946 19.6641 135.217 20.3664 136.842 21.4013C138.503 22.3993 139.667 23.5821 140.331 24.9497C140.996 26.3173 141.328 27.7589 141.328 29.2743C141.328 31.3812 140.793 33.2478 139.722 34.8742C138.688 36.4636 137.174 37.7203 135.18 38.6444C133.186 39.5684 130.804 40.0305 128.035 40.0305C127.223 40.0305 126.004 40.012 124.38 39.975C122.755 39.9011 120.798 39.8641 118.508 39.8641C117.216 39.8641 115.942 39.8826 114.687 39.9196C113.431 39.9196 112.416 39.9565 111.64 40.0305V38.9216C112.896 38.8477 113.837 38.6998 114.465 38.478C115.13 38.2563 115.573 37.8127 115.794 37.1474C116.016 36.4821 116.127 35.4841 116.127 34.1534V6.65326C116.127 5.28565 116.016 4.28766 115.794 3.6593C115.573 2.99397 115.13 2.55042 114.465 2.32864C113.837 2.06991 112.896 1.92205 111.64 1.88509V0.776217ZM125.377 1.88509C123.678 1.88509 122.57 2.19927 122.053 2.82764C121.536 3.456 121.278 4.73121 121.278 6.65326V34.1534C121.278 35.4471 121.389 36.4266 121.61 37.0919C121.832 37.7573 122.238 38.2008 122.829 38.4226C123.42 38.6444 124.287 38.7552 125.432 38.7552C129.051 38.7552 131.672 37.9236 133.297 36.2603C134.959 34.56 135.789 32.1574 135.789 29.0526C135.789 26.2065 135.014 24.0072 133.463 22.4548C131.949 20.9023 129.438 20.1261 125.93 20.1261H120.225C120.225 20.1261 120.225 19.9783 120.225 19.6826C120.225 19.3499 120.225 19.1836 120.225 19.1836H124.989C127.167 19.1836 128.847 18.777 130.029 17.9638C131.211 17.1137 132.023 16.0048 132.466 14.6372C132.909 13.2326 133.131 11.7356 133.131 10.1462C133.131 7.411 132.521 5.35957 131.303 3.99196C130.121 2.58738 128.146 1.88509 125.377 1.88509Z" fill="white"/>
<path d="M164.372 0C167.88 0 170.945 0.794696 173.566 2.38409C176.225 3.97348 178.274 6.26516 179.714 9.25912C181.191 12.2161 181.93 15.82 181.93 20.0707C181.93 24.2105 181.173 27.8328 179.659 30.9377C178.182 34.0425 176.114 36.4636 173.455 38.2008C170.797 39.938 167.751 40.8067 164.317 40.8067C160.809 40.8067 157.725 40.012 155.067 38.4226C152.445 36.8332 150.396 34.5415 148.919 31.5475C147.479 28.5536 146.759 24.9497 146.759 20.736C146.759 16.5962 147.516 12.9739 149.03 9.86901C150.544 6.76415 152.611 4.3431 155.233 2.60586C157.892 0.868621 160.938 0 164.372 0ZM164.15 0.997989C161.75 0.997989 159.664 1.82965 157.892 3.49296C156.119 5.15628 154.734 7.44796 153.738 10.368C152.777 13.288 152.297 16.6701 152.297 20.5142C152.297 24.4323 152.833 27.8513 153.904 30.7713C155.011 33.6544 156.488 35.8906 158.335 37.48C160.218 39.0325 162.286 39.8087 164.538 39.8087C166.938 39.8087 169.024 38.977 170.797 37.3137C172.569 35.6504 173.935 33.3587 174.896 30.4387C175.893 27.4817 176.391 24.0996 176.391 20.2924C176.391 16.3375 175.837 12.9184 174.729 10.0353C173.659 7.15226 172.2 4.9345 170.354 3.38208C168.508 1.79269 166.44 0.997989 164.15 0.997989Z" fill="white"/>
<path d="M186.771 0.776217C187.546 0.813179 188.561 0.850141 189.817 0.887103C191.072 0.924065 192.309 0.942546 193.528 0.942546C195.263 0.942546 196.925 0.924065 198.513 0.887103C200.1 0.850141 201.227 0.83166 201.891 0.83166C204.882 0.83166 207.356 1.25673 209.313 2.10687C211.307 2.95701 212.784 4.12133 213.744 5.59983C214.741 7.04137 215.24 8.66772 215.24 10.4789C215.24 11.5878 215.018 12.7706 214.575 14.0273C214.132 15.284 213.357 16.4668 212.249 17.5757C211.178 18.6846 209.701 19.6086 207.818 20.3479C205.935 21.0502 203.553 21.4013 200.673 21.4013H195.356V20.2924H200.119C202.741 20.2924 204.735 19.8859 206.101 19.0727C207.504 18.2225 208.445 17.1137 208.926 15.7461C209.442 14.3415 209.701 12.789 209.701 11.0888C209.701 8.16873 208.999 5.91401 207.596 4.32462C206.23 2.69827 203.867 1.88509 200.507 1.88509C198.808 1.88509 197.7 2.19927 197.183 2.82764C196.666 3.456 196.408 4.73121 196.408 6.65326V34.1534C196.408 35.4841 196.519 36.4821 196.74 37.1474C196.962 37.8127 197.386 38.2563 198.014 38.478C198.679 38.6998 199.639 38.8477 200.894 38.9216V40.0305C200.045 39.9565 198.974 39.9196 197.682 39.9196C196.426 39.8826 195.153 39.8641 193.86 39.8641C192.42 39.8641 191.072 39.8826 189.817 39.9196C188.561 39.9196 187.546 39.9565 186.771 40.0305V38.9216C188.026 38.8477 188.968 38.6998 189.595 38.478C190.26 38.2563 190.703 37.8127 190.925 37.1474C191.146 36.4821 191.257 35.4841 191.257 34.1534V6.65326C191.257 5.28565 191.146 4.28766 190.925 3.6593C190.703 2.99397 190.26 2.55042 189.595 2.32864C188.968 2.06991 188.026 1.92205 186.771 1.88509V0.776217ZM195.577 20.4588C197.571 20.5327 199.14 20.6251 200.285 20.736C201.43 20.8099 202.353 20.8838 203.054 20.9578C203.793 21.0317 204.495 21.1241 205.159 21.235C207.633 21.6416 209.406 22.3993 210.476 23.5082C211.584 24.5801 212.396 26.2619 212.913 28.5536L214.298 34.2089C214.667 35.8352 215.037 37.018 215.406 37.7573C215.812 38.4595 216.421 38.7922 217.234 38.7552C217.861 38.7183 218.378 38.515 218.785 38.1454C219.228 37.7757 219.689 37.2767 220.169 36.6484L221 37.2583C220.225 38.4041 219.412 39.2912 218.563 39.9196C217.751 40.511 216.587 40.8067 215.074 40.8067C213.707 40.8067 212.507 40.4001 211.473 39.5869C210.439 38.7737 209.664 37.1843 209.147 34.8187L207.929 29.2743C207.596 27.685 207.209 26.3173 206.765 25.1715C206.359 23.9887 205.768 23.0646 204.993 22.3993C204.255 21.734 203.147 21.4013 201.67 21.4013H195.688L195.577 20.4588Z" fill="white"/>
<path d="M5.46714 60.252C4.61509 60.252 3.85905 60.0958 3.19902 59.7835C2.55098 59.4592 2.01096 59.0387 1.57893 58.5221C1.15891 58.0056 0.858895 57.465 0.678886 56.9004L1.48893 56.6481C1.83695 57.5611 2.34697 58.2639 3.01901 58.7564C3.69104 59.2369 4.50108 59.4772 5.44913 59.4772C6.08517 59.4772 6.6492 59.3691 7.14122 59.1528C7.63325 58.9246 8.02327 58.6062 8.31128 58.1978C8.5993 57.7894 8.74331 57.2968 8.74331 56.7202C8.74331 55.9874 8.52729 55.4228 8.09527 55.0264C7.67525 54.618 7.18322 54.3357 6.6192 54.1795L4.11706 53.4587C3.08501 53.1584 2.34697 52.6899 1.90295 52.0532C1.45893 51.4166 1.23692 50.6958 1.23692 49.8909C1.23692 49.1942 1.40492 48.5875 1.74094 48.071C2.07696 47.5424 2.53298 47.134 3.10901 46.8457C3.68504 46.5454 4.33308 46.3952 5.05311 46.3952C5.79715 46.3952 6.46319 46.5454 7.05122 46.8457C7.65125 47.134 8.15528 47.5184 8.5633 47.9989C8.98332 48.4674 9.27733 48.978 9.44534 49.5305L8.6353 49.7828C8.32328 48.9299 7.84926 48.2812 7.21323 47.8367C6.57719 47.3923 5.86316 47.17 5.07111 47.17C4.51909 47.17 4.01506 47.2841 3.55904 47.5124C3.11501 47.7286 2.76099 48.041 2.49698 48.4494C2.23297 48.8578 2.10096 49.3443 2.10096 49.909C2.10096 50.5697 2.27497 51.1162 2.62299 51.5487C2.97101 51.9812 3.60104 52.3355 4.51309 52.6118L6.7812 53.2966C7.65725 53.5609 8.34729 53.9933 8.85131 54.594C9.35534 55.1826 9.60735 55.8973 9.60735 56.7382C9.60735 57.435 9.42734 58.0476 9.06732 58.5762C8.7073 59.0928 8.21528 59.5012 7.59125 59.8015C6.96721 60.1018 6.25918 60.252 5.46714 60.252Z" fill="white"/>
<path d="M18.9439 60.252C18.0439 60.252 17.1918 60.0838 16.3878 59.7475C15.5958 59.4111 14.8997 58.9366 14.2997 58.3239C13.6997 57.6993 13.2256 56.9665 12.8776 56.1256C12.5416 55.2727 12.3736 54.3357 12.3736 53.3146C12.3736 52.2935 12.5416 51.3625 12.8776 50.5216C13.2256 49.6807 13.6997 48.9539 14.2997 48.3413C14.9117 47.7166 15.6138 47.2361 16.4058 46.8997C17.1978 46.5634 18.0439 46.3952 18.9439 46.3952C19.844 46.3952 20.69 46.5634 21.4821 46.8997C22.2741 47.2361 22.9701 47.7166 23.5702 48.3413C24.1822 48.9539 24.6562 49.6867 24.9922 50.5396C25.3403 51.3805 25.5143 52.3055 25.5143 53.3146C25.5143 54.3357 25.3403 55.2727 24.9922 56.1256C24.6562 56.9665 24.1882 57.6993 23.5882 58.3239C22.9881 58.9366 22.2861 59.4111 21.4821 59.7475C20.69 60.0838 19.844 60.252 18.9439 60.252ZM18.9439 59.3871C19.784 59.3871 20.552 59.2309 21.2481 58.9186C21.9441 58.5942 22.5441 58.1498 23.0481 57.5852C23.5522 57.0205 23.9362 56.3719 24.2002 55.6391C24.4762 54.9063 24.6142 54.1315 24.6142 53.3146C24.6142 52.5097 24.4762 51.7469 24.2002 51.0261C23.9362 50.2934 23.5522 49.6447 23.0481 49.0801C22.5561 48.5155 21.9621 48.071 21.2661 47.7466C20.57 47.4223 19.796 47.2601 18.9439 47.2601C18.1039 47.2601 17.3358 47.4223 16.6398 47.7466C15.9438 48.071 15.3437 48.5155 14.8397 49.0801C14.3357 49.6447 13.9457 50.2934 13.6697 51.0261C13.4056 51.7469 13.2736 52.5097 13.2736 53.3146C13.2736 54.1315 13.4056 54.9063 13.6697 55.6391C13.9457 56.3719 14.3357 57.0205 14.8397 57.5852C15.3437 58.1498 15.9438 58.5942 16.6398 58.9186C17.3358 59.2309 18.1039 59.3871 18.9439 59.3871Z" fill="white"/>
<path d="M28.6786 60.0358V46.6114H29.5787V59.2249H35.699V60.0358H28.6786Z" fill="white"/>
<path d="M42.3534 60.252C41.4654 60.252 40.6794 60.0538 39.9953 59.6574C39.3233 59.2609 38.7953 58.7084 38.4112 57.9996C38.0392 57.2908 37.8532 56.4619 37.8532 55.5129V46.6114H38.7533V55.585C38.7533 56.3418 38.9033 57.0085 39.2033 57.5852C39.5033 58.1618 39.9233 58.6183 40.4633 58.9546C41.0154 59.279 41.6454 59.4411 42.3534 59.4411C43.0735 59.4411 43.7035 59.279 44.2435 58.9546C44.7836 58.6183 45.2036 58.1618 45.5036 57.5852C45.8036 57.0085 45.9536 56.3418 45.9536 55.585V46.6114H46.8537V55.5129C46.8537 56.4619 46.6617 57.2908 46.2776 57.9996C45.9056 58.7084 45.3836 59.2609 44.7116 59.6574C44.0395 60.0538 43.2535 60.252 42.3534 60.252Z" fill="white"/>
<path d="M56.3119 60.252C55.3999 60.252 54.5598 60.0838 53.7918 59.7475C53.0237 59.3991 52.3517 58.9126 51.7757 58.2879C51.1996 57.6632 50.7496 56.9305 50.4256 56.0896C50.1136 55.2487 49.9576 54.3237 49.9576 53.3146C49.9576 52.3175 50.1136 51.3985 50.4256 50.5576C50.7496 49.7047 51.1996 48.972 51.7757 48.3593C52.3517 47.7346 53.0237 47.2541 53.7918 46.9178C54.5598 46.5694 55.3999 46.3952 56.3119 46.3952C57.2 46.3952 57.998 46.5634 58.706 46.8997C59.4141 47.2241 60.0141 47.6385 60.5061 48.1431C60.9981 48.6356 61.3522 49.1401 61.5682 49.6567L60.7221 50.0351C60.3261 49.1942 59.7441 48.5215 58.976 48.0169C58.22 47.5124 57.332 47.2601 56.3119 47.2601C55.2438 47.2601 54.2958 47.5184 53.4678 48.035C52.6517 48.5395 52.0097 49.2482 51.5417 50.1612C51.0856 51.0622 50.8576 52.1133 50.8576 53.3146C50.8576 54.5159 51.0856 55.573 51.5417 56.486C52.0097 57.399 52.6517 58.1137 53.4678 58.6303C54.2958 59.1348 55.2438 59.3871 56.3119 59.3871C57.332 59.3871 58.22 59.1348 58.976 58.6303C59.7441 58.1257 60.3261 57.453 60.7221 56.6121L61.5682 56.9905C61.3522 57.5071 60.9981 58.0176 60.5061 58.5221C60.0141 59.0147 59.4141 59.4291 58.706 59.7655C57.998 60.0898 57.2 60.252 56.3119 60.252ZM56.4559 64C56.1199 64 55.8019 63.9399 55.5019 63.8198C55.2018 63.6997 54.9438 63.5255 54.7278 63.2973L54.9978 62.7206C55.1898 62.9249 55.4119 63.081 55.6639 63.1891C55.9279 63.3093 56.1799 63.3693 56.4199 63.3693C56.7199 63.3693 56.9539 63.2852 57.1219 63.1171C57.302 62.9609 57.392 62.7687 57.392 62.5404C57.392 62.2041 57.2239 61.9398 56.8879 61.7476C56.5519 61.5674 56.1019 61.4533 55.5379 61.4052L55.9879 59.8556H56.7619L56.4739 60.9187C56.9899 61.0028 57.398 61.189 57.698 61.4773C58.01 61.7656 58.166 62.102 58.166 62.4864C58.166 62.9429 58.004 63.3093 57.68 63.5856C57.368 63.8619 56.9599 64 56.4559 64Z" fill="white"/>
<path d="M70.7142 60.252C69.8141 60.252 68.9621 60.0838 68.1581 59.7475C67.366 59.4111 66.67 58.9366 66.07 58.3239C65.4699 57.6993 64.9959 56.9665 64.6479 56.1256C64.3119 55.2727 64.1439 54.3357 64.1439 53.3146C64.1439 52.2935 64.3119 51.3625 64.6479 50.5216C64.9959 49.6807 65.4699 48.9539 66.07 48.3413C66.682 47.7166 67.384 47.2361 68.1761 46.8997C68.9681 46.5634 69.8141 46.3952 70.7142 46.3952C71.6142 46.3952 72.4603 46.5634 73.2523 46.8997C74.0444 47.2361 74.7404 47.7166 75.3404 48.3413C75.9525 48.9539 76.4265 49.6867 76.7625 50.5396C77.1105 51.3805 77.2845 52.3055 77.2845 53.3146C77.2845 54.3357 77.1105 55.2727 76.7625 56.1256C76.4265 56.9665 75.9585 57.6993 75.3584 58.3239C74.7584 58.9366 74.0564 59.4111 73.2523 59.7475C72.4603 60.0838 71.6142 60.252 70.7142 60.252ZM70.7142 59.3871C71.5542 59.3871 72.3223 59.2309 73.0183 58.9186C73.7144 58.5942 74.3144 58.1498 74.8184 57.5852C75.3224 57.0205 75.7065 56.3719 75.9705 55.6391C76.2465 54.9063 76.3845 54.1315 76.3845 53.3146C76.3845 52.5097 76.2465 51.7469 75.9705 51.0261C75.7065 50.2934 75.3224 49.6447 74.8184 49.0801C74.3264 48.5155 73.7324 48.071 73.0363 47.7466C72.3403 47.4223 71.5662 47.2601 70.7142 47.2601C69.8742 47.2601 69.1061 47.4223 68.4101 47.7466C67.714 48.071 67.114 48.5155 66.61 49.0801C66.106 49.6447 65.7159 50.2934 65.4399 51.0261C65.1759 51.7469 65.0439 52.5097 65.0439 53.3146C65.0439 54.1315 65.1759 54.9063 65.4399 55.6391C65.7159 56.3719 66.106 57.0205 66.61 57.5852C67.114 58.1498 67.714 58.5942 68.4101 58.9186C69.1061 59.2309 69.8742 59.3871 70.7142 59.3871ZM71.7402 44.5572C71.4402 44.5572 71.1882 44.4972 70.9842 44.377C70.7922 44.2449 70.6242 44.0947 70.4802 43.9266C70.3482 43.7464 70.2162 43.5962 70.0842 43.4761C69.9522 43.3439 69.7902 43.2779 69.5981 43.2779C69.3701 43.2779 69.1901 43.374 69.0581 43.5662C68.9381 43.7584 68.8781 44.0647 68.8781 44.4852H68.1581C68.1581 43.9085 68.2841 43.446 68.5361 43.0977C68.8001 42.7493 69.1721 42.5751 69.6521 42.5751C69.9522 42.5751 70.1922 42.6412 70.3722 42.7733C70.5522 42.8935 70.7082 43.0436 70.8402 43.2238C70.9842 43.392 71.1222 43.5421 71.2542 43.6743C71.3982 43.7944 71.5722 43.8545 71.7763 43.8545C72.0283 43.8545 72.2203 43.7584 72.3523 43.5662C72.4843 43.362 72.5503 43.0556 72.5503 42.6472H73.2703C73.2703 43.1998 73.1383 43.6563 72.8743 44.0167C72.6103 44.377 72.2323 44.5572 71.7402 44.5572Z" fill="white"/>
<path d="M80.4489 60.0358V46.6114H88.7293V47.4223H81.349V52.9001H88.3693V53.711H81.349V59.2249H88.7293V60.0358H80.4489Z" fill="white"/>
<path d="M95.7003 60.252C94.8483 60.252 94.0923 60.0958 93.4322 59.7835C92.7842 59.4592 92.2442 59.0387 91.8121 58.5221C91.3921 58.0056 91.0921 57.465 90.9121 56.9004L91.7221 56.6481C92.0702 57.5611 92.5802 58.2639 93.2522 58.7564C93.9242 59.2369 94.7343 59.4772 95.6823 59.4772C96.3184 59.4772 96.8824 59.3691 97.3744 59.1528C97.8664 58.9246 98.2565 58.6062 98.5445 58.1978C98.8325 57.7894 98.9765 57.2968 98.9765 56.7202C98.9765 55.9874 98.7605 55.4228 98.3285 55.0264C97.9085 54.618 97.4164 54.3357 96.8524 54.1795L94.3503 53.4587C93.3182 53.1584 92.5802 52.6899 92.1362 52.0532C91.6921 51.4166 91.4701 50.6958 91.4701 49.8909C91.4701 49.1942 91.6381 48.5875 91.9741 48.071C92.3102 47.5424 92.7662 47.134 93.3422 46.8457C93.9182 46.5454 94.5663 46.3952 95.2863 46.3952C96.0304 46.3952 96.6964 46.5454 97.2844 46.8457C97.8845 47.134 98.3885 47.5184 98.7965 47.9989C99.2165 48.4674 99.5105 48.978 99.6786 49.5305L98.8685 49.7828C98.5565 48.9299 98.0825 48.2812 97.4464 47.8367C96.8104 47.3923 96.0964 47.17 95.3043 47.17C94.7523 47.17 94.2483 47.2841 93.7922 47.5124C93.3482 47.7286 92.9942 48.041 92.7302 48.4494C92.4662 48.8578 92.3342 49.3443 92.3342 49.909C92.3342 50.5697 92.5082 51.1162 92.8562 51.5487C93.2042 51.9812 93.8342 52.3355 94.7463 52.6118L97.0144 53.2966C97.8905 53.5609 98.5805 53.9933 99.0845 54.594C99.5885 55.1826 99.8406 55.8973 99.8406 56.7382C99.8406 57.435 99.6605 58.0476 99.3005 58.5762C98.9405 59.0928 98.4485 59.5012 97.8244 59.8015C97.2004 60.1018 96.4924 60.252 95.7003 60.252Z" fill="white"/>
<path d="M105.886 60.0358V46.6114H113.986V47.4223H106.786V52.9001H113.266V53.711H106.786V60.0358H105.886Z" fill="white"/>
<path d="M116.556 60.0358V46.6114H117.456V60.0358H116.556Z" fill="white"/>
<path d="M121.021 60.0358V46.6114H121.741L130.13 58.6303H129.842V46.6114H130.742V60.0358H130.022L121.579 47.9449H121.921V60.0358H121.021Z" fill="white"/>
<path d="M132.925 60.0358L137.893 46.6114H138.757L143.726 60.0358H142.736L141.439 56.486H135.211L133.915 60.0358H132.925ZM135.499 55.6751H141.151L138.109 47.3502H138.541L135.499 55.6751Z" fill="white"/>
<path d="M145.896 60.0358V46.6114H146.616L155.004 58.6303H154.716V46.6114H155.616V60.0358H154.896L146.454 47.9449H146.796V60.0358H145.896Z" fill="white"/>
<path d="M165.144 60.252C164.232 60.252 163.392 60.0838 162.624 59.7475C161.856 59.3991 161.184 58.9126 160.608 58.2879C160.031 57.6632 159.581 56.9305 159.257 56.0896C158.945 55.2487 158.789 54.3237 158.789 53.3146C158.789 52.3175 158.945 51.3985 159.257 50.5576C159.581 49.7047 160.031 48.972 160.608 48.3593C161.184 47.7346 161.856 47.2541 162.624 46.9178C163.392 46.5694 164.232 46.3952 165.144 46.3952C166.032 46.3952 166.83 46.5634 167.538 46.8997C168.246 47.2241 168.846 47.6385 169.338 48.1431C169.83 48.6356 170.184 49.1401 170.4 49.6567L169.554 50.0351C169.158 49.1942 168.576 48.5215 167.808 48.0169C167.052 47.5124 166.164 47.2601 165.144 47.2601C164.076 47.2601 163.128 47.5184 162.3 48.035C161.484 48.5395 160.842 49.2482 160.373 50.1612C159.917 51.0622 159.689 52.1133 159.689 53.3146C159.689 54.5159 159.917 55.573 160.373 56.486C160.842 57.399 161.484 58.1137 162.3 58.6303C163.128 59.1348 164.076 59.3871 165.144 59.3871C166.164 59.3871 167.052 59.1348 167.808 58.6303C168.576 58.1257 169.158 57.453 169.554 56.6121L170.4 56.9905C170.184 57.5071 169.83 58.0176 169.338 58.5221C168.846 59.0147 168.246 59.4291 167.538 59.7655C166.83 60.0898 166.032 60.252 165.144 60.252Z" fill="white"/>
<path d="M173.372 60.0358V46.6114H181.652V47.4223H174.272V52.9001H181.292V53.711H174.272V59.2249H181.652V60.0358H173.372Z" fill="white"/>
<path d="M184.429 60.0358V46.6114H185.329V60.0358H184.429Z" fill="white"/>
<path d="M188.894 60.0358V46.6114H193.286C194.126 46.6114 194.864 46.7796 195.5 47.116C196.136 47.4523 196.634 47.9268 196.994 48.5395C197.354 49.1401 197.534 49.8369 197.534 50.6297C197.534 51.6028 197.264 52.4316 196.724 53.1164C196.184 53.8011 195.458 54.2576 194.546 54.4858L197.75 60.0358H196.688L193.286 54.0714L194.258 54.63H189.794V60.0358H188.894ZM189.794 53.8191H193.286C193.946 53.8191 194.522 53.687 195.014 53.4227C195.518 53.1464 195.914 52.768 196.202 52.2875C196.49 51.795 196.634 51.2364 196.634 50.6117C196.634 49.975 196.49 49.4224 196.202 48.9539C195.926 48.4734 195.536 48.101 195.032 47.8367C194.528 47.5604 193.946 47.4223 193.286 47.4223H189.794V53.8191Z" fill="white"/>
<path d="M198.934 60.0358L203.903 46.6114H204.767L209.735 60.0358H208.745L207.449 56.486H201.22L199.924 60.0358H198.934ZM201.508 55.6751H207.161L204.119 47.3502H204.551L201.508 55.6751Z" fill="white"/>
<path d="M216.099 60.252C215.247 60.252 214.491 60.0958 213.831 59.7835C213.183 59.4592 212.643 59.0387 212.211 58.5221C211.791 58.0056 211.491 57.465 211.311 56.9004L212.121 56.6481C212.469 57.5611 212.979 58.2639 213.651 58.7564C214.323 59.2369 215.133 59.4772 216.081 59.4772C216.717 59.4772 217.281 59.3691 217.773 59.1528C218.265 58.9246 218.655 58.6062 218.943 58.1978C219.231 57.7894 219.375 57.2968 219.375 56.7202C219.375 55.9874 219.159 55.4228 218.727 55.0264C218.307 54.618 217.815 54.3357 217.251 54.1795L214.749 53.4587C213.717 53.1584 212.979 52.6899 212.535 52.0532C212.091 51.4166 211.869 50.6958 211.869 49.8909C211.869 49.1942 212.037 48.5875 212.373 48.071C212.709 47.5424 213.165 47.134 213.741 46.8457C214.317 46.5454 214.965 46.3952 215.685 46.3952C216.429 46.3952 217.095 46.5454 217.683 46.8457C218.283 47.134 218.787 47.5184 219.195 47.9989C219.615 48.4674 219.909 48.978 220.077 49.5305L219.267 49.7828C218.955 48.9299 218.481 48.2812 217.845 47.8367C217.209 47.3923 216.495 47.17 215.703 47.17C215.151 47.17 214.647 47.2841 214.191 47.5124C213.747 47.7286 213.393 48.041 213.129 48.4494C212.865 48.8578 212.733 49.3443 212.733 49.909C212.733 50.5697 212.907 51.1162 213.255 51.5487C213.603 51.9812 214.233 52.3355 215.145 52.6118L217.413 53.2966C218.289 53.5609 218.979 53.9933 219.483 54.594C219.987 55.1826 220.239 55.8973 220.239 56.7382C220.239 57.435 220.059 58.0476 219.699 58.5762C219.339 59.0928 218.847 59.5012 218.223 59.8015C217.599 60.1018 216.891 60.252 216.099 60.252Z" fill="white"/>
</svg>
