<svg width="1366" height="255" viewBox="0 0 1366 255" fill="none" xmlns="http://www.w3.org/2000/svg">
<path d="M1369.8 -1.5C1369.8 27.3304 1350.64 54.835 1315.9 79.8846C1281.16 104.931 1230.87 127.495 1168.72 146.448C1044.43 184.352 872.696 207.8 683 207.8C493.304 207.8 321.575 184.352 197.276 146.448C135.125 127.495 84.844 104.931 50.1048 79.8846C15.361 54.835 -3.8 27.3304 -3.8 -1.5C-3.8 -30.3304 15.361 -57.835 50.1048 -82.8846C84.844 -107.931 135.125 -130.495 197.276 -149.448C321.575 -187.352 493.304 -210.8 683 -210.8C872.696 -210.8 1044.43 -187.352 1168.72 -149.448C1230.87 -130.495 1281.16 -107.931 1315.9 -82.8846C1350.64 -57.835 1369.8 -30.3304 1369.8 -1.5Z" stroke="#6D6FFA" stroke-width="0.4"/>
<path d="M1389.8 45.5C1389.8 74.3278 1370.08 101.832 1334.33 126.883C1298.57 151.93 1246.83 174.494 1182.87 193.447C1054.95 231.352 878.219 254.8 683 254.8C487.781 254.8 311.051 231.352 183.132 193.447C119.172 174.494 67.4257 151.93 31.6743 126.883C-4.08264 101.832 -23.8 74.3278 -23.8 45.5C-23.8 16.6722 -4.08264 -10.8323 31.6743 -35.8831C67.4257 -60.9299 119.172 -83.4941 183.132 -102.447C311.051 -140.352 487.781 -163.8 683 -163.8C878.219 -163.8 1054.95 -140.352 1182.87 -102.447C1246.83 -83.4941 1298.57 -60.9299 1334.33 -35.8831C1370.08 -10.8323 1389.8 16.6722 1389.8 45.5Z" stroke="#6D6FFA" stroke-width="0.4"/>
<path d="M1365.8 -59.5C1365.8 -30.669 1346.75 -3.16446 1312.21 21.8849C1277.67 46.9311 1227.68 69.4949 1165.9 88.4477C1042.32 126.352 871.591 149.8 683 149.8C494.409 149.8 323.68 126.352 200.105 88.4477C138.316 69.4949 88.3277 46.9311 53.7909 21.8849C19.2497 -3.16446 0.2 -30.669 0.2 -59.5C0.2 -88.331 19.2497 -115.836 53.7909 -140.885C88.3277 -165.931 138.316 -188.495 200.105 -207.448C323.68 -245.352 494.409 -268.8 683 -268.8C871.591 -268.8 1042.32 -245.352 1165.9 -207.448C1227.68 -188.495 1277.67 -165.931 1312.21 -140.885C1346.75 -115.836 1365.8 -88.331 1365.8 -59.5Z" stroke="#6D6FFA" stroke-width="0.4"/>
<path d="M1365.8 -114.5C1365.8 -85.669 1346.75 -58.1645 1312.21 -33.1151C1277.67 -8.06891 1227.68 14.4949 1165.9 33.4477C1042.32 71.3524 871.591 94.8 683 94.8C494.409 94.8 323.68 71.3524 200.105 33.4477C138.316 14.4949 88.3277 -8.06891 53.7909 -33.1151C19.2497 -58.1645 0.2 -85.669 0.2 -114.5C0.2 -143.331 19.2497 -170.836 53.7909 -195.885C88.3277 -220.931 138.316 -243.495 200.105 -262.448C323.68 -300.352 494.409 -323.8 683 -323.8C871.591 -323.8 1042.32 -300.352 1165.9 -262.448C1227.68 -243.495 1277.67 -220.931 1312.21 -195.885C1346.75 -170.836 1365.8 -143.331 1365.8 -114.5Z" stroke="#6D6FFA" stroke-width="0.4"/>
<path d="M1365.8 -169.5C1365.8 -140.669 1346.75 -113.164 1312.21 -88.1151C1277.67 -63.0689 1227.68 -40.5051 1165.9 -21.5523C1042.32 16.3524 871.591 39.8 683 39.8C494.409 39.8 323.68 16.3524 200.105 -21.5523C138.316 -40.5051 88.3277 -63.0689 53.7909 -88.1151C19.2497 -113.164 0.2 -140.669 0.2 -169.5C0.2 -198.331 19.2497 -225.836 53.7909 -250.885C88.3277 -275.931 138.316 -298.495 200.105 -317.448C323.68 -355.352 494.409 -378.8 683 -378.8C871.591 -378.8 1042.32 -355.352 1165.9 -317.448C1227.68 -298.495 1277.67 -275.931 1312.21 -250.885C1346.75 -225.836 1365.8 -198.331 1365.8 -169.5Z" stroke="#6D6FFA" stroke-width="0.4"/>
</svg>
